<svg width="80" height="48" viewBox="0 0 80 48" fill="none" xmlns="http://www.w3.org/2000/svg">
<g filter="url(#filter0_d_6001_22)">
<path d="M60.8717 19.7298C62.5755 20.2756 64.2337 20.6622 65.8615 19.7146C66.5537 19.3129 67.1622 18.7898 67.8164 18.3274C69.3148 17.2813 70.8817 16.3489 72.6693 15.8865C72.829 15.8486 72.9887 15.8107 73.1485 15.7804C74.5556 15.5529 75.4684 16.311 75.5977 17.8043C75.7118 19.1688 75.4912 20.5106 75.1261 21.8068C74.6317 23.5958 74.0764 25.3621 73.4831 27.1208C72.5704 29.827 71.939 32.609 71.2925 35.3835C71.0871 36.278 70.8361 37.1573 70.5851 38.0367C70.5014 38.3247 70.3493 38.6052 70.1896 38.8629C69.6875 39.674 68.8813 39.8484 68.2043 39.1889C67.5806 38.5749 67.0405 37.8623 66.5613 37.1422C65.504 35.5578 64.7662 33.8219 64.1044 32.0405C63.9599 31.6463 63.785 31.2597 63.5796 30.8883C63.2297 30.2515 62.6972 29.8346 61.9898 29.6299C60.6435 29.2357 59.282 29.0614 57.8824 29.1751C57.7607 29.1826 57.639 29.213 57.4184 29.2585C57.7226 29.4631 57.9432 29.6072 58.1638 29.7663C58.4453 29.971 58.7419 30.1681 59.0005 30.4107C59.8981 31.2673 60.0882 32.2148 59.533 33.3216C58.2703 35.8611 56.3307 37.6728 53.6836 38.772C51.8657 39.5224 50.352 39.0676 48.9296 37.8699C47.4844 36.6494 46.2978 35.2243 45.3698 33.5793C45.1492 33.1927 44.8754 33.0639 44.4494 33.1321C42.3501 33.458 40.2431 33.6172 38.1209 33.5566C38.0372 33.5566 37.9612 33.5566 37.8547 33.5642C37.9079 34.0038 37.9916 34.4283 37.9916 34.8529C37.9916 35.5882 37.9536 36.331 37.9003 37.0663C37.8395 37.8623 37.9307 38.6128 38.3415 39.3102C38.3719 39.3557 38.3719 39.4163 38.41 39.5376C38.2502 39.5148 38.1437 39.5073 38.0448 39.4769C36.6985 39.151 35.5499 38.4536 34.5231 37.5439C34.1275 37.1952 34.1123 37.2104 33.8613 37.688C33.4886 38.3929 33.23 39.1282 33.3289 40C33.1615 39.9469 33.0398 39.9394 32.9562 39.8787C32.3629 39.4466 31.7163 39.06 31.1991 38.5445C29.6093 36.9451 28.6281 34.9969 28.1869 32.791C28.1109 32.3968 27.9283 32.2148 27.548 32.1239C24.3305 31.3431 21.1054 30.5623 17.9031 29.7284C15.8341 29.1902 13.9249 28.2351 11.9777 27.3785C10.1521 26.575 8.30375 25.8018 6.47061 25.0134C5.28401 24.5055 4.43209 23.6868 4.08219 22.4057C3.74751 21.1852 4.46251 20.1695 5.72518 20.0785C6.18917 20.0482 6.65316 20.0785 7.15518 20.0785C7.0487 19.8359 6.91178 19.6009 6.83572 19.3508C6.68359 18.8277 6.49343 18.2971 6.44779 17.7589C6.37933 17.0236 6.73683 16.4399 7.36056 16.0457C7.60396 15.8865 7.87779 15.7121 8.15163 15.6818C9.08721 15.5605 9.81743 15.0071 10.6313 14.6281C12.2743 13.8701 13.9401 13.1651 15.5907 12.4222C17.3706 11.6187 19.1353 10.7848 20.9152 9.98887C23.6915 8.74567 26.6048 7.98762 29.6245 7.62376C29.9668 7.58586 30.1113 7.3736 30.1722 7.07796C30.408 5.90299 30.6438 4.72801 30.8644 3.55304C30.9328 3.1816 30.9633 2.81015 31.0393 2.43871C31.0622 2.325 31.1991 2.24162 31.2751 2.14307C31.3588 2.23404 31.4805 2.30984 31.5261 2.41597C31.625 2.61306 31.6555 2.84806 31.7543 3.03757C32.0053 3.51514 32.4769 3.59852 32.8573 3.2195C33.0779 2.99966 33.268 2.72677 33.3973 2.44629C33.6255 1.96872 33.7929 1.46841 33.9982 0.983256C34.0591 0.846808 34.1884 0.748261 34.2873 0.634554C34.3633 0.763422 34.447 0.88471 34.5231 1.01358C34.5459 1.05148 34.5307 1.11212 34.5611 1.15003C34.6524 1.28648 34.7513 1.51389 34.8654 1.52905C35.0327 1.54421 35.2609 1.44567 35.375 1.3168C35.626 1.02116 35.8162 0.680037 36.0291 0.354076C36.09 0.263111 36.128 0.156984 36.2117 0.0963399C36.2802 0.0356961 36.4095 -0.0173673 36.4703 0.00537415C36.5312 0.0356961 36.5768 0.172145 36.5768 0.263111C36.5692 0.41472 36.5083 0.558749 36.4703 0.710359C36.4019 0.990837 36.4171 1.29406 36.6757 1.43809C36.8582 1.53663 37.1853 1.57453 37.3603 1.47599C37.8699 1.19551 38.3339 0.831647 38.8283 0.513266C38.9272 0.445042 39.0717 0.437462 39.1934 0.399559C39.2086 0.513266 39.2543 0.642135 39.2314 0.748261C39.163 1.1197 39.0337 1.50631 39.376 1.80195C39.7259 2.10517 40.1138 1.95356 40.4713 1.79437C40.806 1.65034 41.1102 1.44567 41.4373 1.29406C41.5362 1.24857 41.6731 1.27131 41.7948 1.26373C41.7872 1.36986 41.7872 1.47599 41.7644 1.58211C41.7187 1.78679 41.6275 1.98388 41.6123 2.18855C41.5818 2.61306 41.772 2.9087 42.1979 2.97692C42.5631 3.02999 42.9358 2.97692 43.3085 2.96176C43.4378 2.96176 43.5595 2.90112 43.6888 2.89354C43.8866 2.88596 43.9702 2.99208 43.9246 3.1816C43.9094 3.23466 43.879 3.28772 43.8561 3.34837C43.5443 4.18222 43.879 4.66737 44.7841 4.67495C45.1644 4.67495 45.5372 4.67495 45.9099 4.67495C46.2141 4.67495 46.275 4.79624 46.1076 5.04639C45.8871 5.37994 45.6741 5.72106 45.9023 6.11524C46.1381 6.53217 46.5716 6.49427 46.9748 6.49427C47.1725 6.49427 47.3779 6.46394 47.5757 6.47153C47.6822 6.47153 47.8343 6.50185 47.8875 6.57007C47.9256 6.62314 47.8723 6.78233 47.8191 6.87329C47.4007 7.58586 47.4996 7.9194 48.2603 8.29084C48.4124 8.36665 48.6254 8.41213 48.4124 8.73809C48.709 8.60164 48.9144 8.48793 49.1274 8.41213C50.2227 8.00278 51.3104 7.53279 52.4286 7.19925C54.5051 6.58523 56.4676 6.91119 58.2931 8.10133C61.0695 9.91306 62.857 12.3767 63.3058 15.697C63.4959 17.0766 63.146 18.3274 61.9746 19.2067C61.6704 19.4342 61.2977 19.5706 60.9021 19.7677L60.8717 19.7298ZM14.7312 24.0507C14.5334 24.2023 14.579 24.3766 14.7084 24.5434C14.8605 24.7405 15.0202 24.93 15.1952 25.0968C15.758 25.6501 16.8382 25.3318 17.0359 24.5965C16.7849 24.7102 16.5035 24.8315 16.222 24.9603L16.1612 24.8694C16.5795 24.5813 16.8534 24.2023 16.9446 23.702C17.1196 22.7696 16.8305 21.9281 16.3589 21.1549C15.6059 19.9117 14.5334 18.9869 13.3088 18.2289C12.8676 17.956 12.4036 17.721 11.9472 17.4632C12.4569 18.0393 13.0121 18.5397 13.5218 19.0854C14.2748 19.8966 15.0202 20.7153 15.4766 21.7462C15.7124 22.2768 15.8874 22.8302 15.758 23.4215C15.6516 23.9142 15.256 24.1492 14.7312 24.0507C15.0506 23.6792 15.1267 23.2471 14.9746 22.7999C14.8453 22.4133 14.7008 22.0191 14.4878 21.678C13.4533 19.9799 12.145 18.5018 10.5857 17.2661C10.1673 16.9402 9.68052 16.6673 9.1861 16.4626C8.53195 16.1897 7.78652 16.4399 7.55072 16.9402C7.99189 16.6521 8.02232 16.6445 8.52434 16.8416C8.72971 16.925 8.94269 17.0084 9.12525 17.1297C10.753 18.1834 12.0613 19.5403 13.0045 21.2383C13.0806 21.3748 13.1414 21.5112 13.2099 21.6477C13.2707 21.7765 13.3316 21.913 13.3848 22.0494C12.0841 20.8062 11.0421 19.3204 9.52078 18.3274C10.289 19.1461 11.0801 19.9269 11.8027 20.7683C12.6698 21.7765 13.4685 22.8302 14.2976 23.8687C14.4041 24.0052 14.5106 24.1644 14.7236 24.0507H14.7312ZM32.9638 16.4626C32.9638 16.4626 32.9181 16.4778 32.9029 16.4853C32.979 16.7052 33.0702 16.9174 33.1159 17.1448C33.3289 18.1076 33.5647 19.0627 33.732 20.033C33.8005 20.4499 33.8613 20.5257 34.2568 20.3211C35.4739 19.6843 36.7441 19.2067 38.0753 18.8959C39.376 18.5851 40.6995 18.4335 42.0306 18.6609C43.3541 18.8884 44.0767 19.9269 43.8485 21.2459C43.4834 23.3912 42.4718 25.2181 41.019 26.8175C40.1366 27.7803 39.0565 28.1441 37.8014 27.894C36.8735 27.712 35.9455 27.4619 35.0403 27.189C34.2797 26.9616 33.5342 26.6432 32.7812 26.3855C32.6595 26.34 32.4313 26.3324 32.3781 26.4006C31.9749 26.9161 31.6022 27.4619 31.2143 28.0001C31.2523 28.0304 31.2827 28.0532 31.3208 28.0835C31.7467 27.5604 32.1727 27.0374 32.5986 26.5219C31.9065 28.3185 30.3852 29.5162 29.3203 31.0854C29.8223 30.9641 30.1798 30.676 30.446 30.2515C30.7579 29.7436 31.9597 28.5838 32.5226 28.3412C31.8304 29.2964 31.1382 30.2591 30.4004 31.2749C30.5753 31.1991 30.7046 31.1536 30.8264 31.0854C31.3816 30.7518 31.7848 30.2667 32.1575 29.7436C32.3476 29.4783 32.5834 29.2433 32.8268 29.0235C32.8953 28.9628 33.055 28.9931 33.1691 28.9856C33.1539 29.0917 33.1691 29.2206 33.1235 29.3039C33.0094 29.5086 32.8801 29.7057 32.7356 29.8876C32.3781 30.35 32.0053 30.8125 31.6402 31.2673C31.6555 31.2976 31.6783 31.3203 31.6935 31.3507C32.0206 31.146 32.3933 30.9792 32.6747 30.7215C32.9714 30.4486 33.1843 30.0847 33.4506 29.7739C33.6331 29.5617 33.8233 29.357 34.0363 29.1675C34.0895 29.1144 34.2568 29.1144 34.3101 29.1675C34.3633 29.2054 34.3633 29.3646 34.3253 29.4404C34.2416 29.6223 34.1275 29.7891 34.0134 29.9483C33.8081 30.2515 33.5951 30.5547 33.3669 30.8883C33.8461 30.9868 34.1047 30.7821 34.3253 30.4789C34.5611 30.1454 34.7741 29.7891 35.0479 29.4859C35.1316 29.3873 35.375 29.4328 35.5499 29.4101C35.5195 29.5541 35.5347 29.7284 35.4587 29.8422C35.2153 30.2136 34.9414 30.5547 34.6752 30.9186C35.1088 31.0854 35.3446 31.002 35.6184 30.6002C35.839 30.2818 36.0444 29.9483 36.2954 29.6602C36.379 29.5617 36.5996 29.592 36.7594 29.5617C36.7365 29.7057 36.7594 29.8801 36.6909 29.9938C36.4323 30.3955 36.1432 30.7821 35.8618 31.1763C36.1585 31.381 36.4019 31.2749 36.5768 31.0702C36.805 30.7897 36.9952 30.4789 37.2081 30.1833C37.3146 30.0317 37.4059 29.8497 37.5504 29.7436C37.6569 29.6602 37.8395 29.683 37.984 29.6602C37.9688 29.7967 37.9916 29.9559 37.9307 30.062C37.5961 30.6002 37.2462 31.1157 36.8887 31.6539C37.0712 31.8889 37.2766 31.7903 37.4135 31.6236C37.7634 31.1839 38.0829 30.7215 38.41 30.2667C38.5164 30.115 38.5925 29.9255 38.7294 29.8118C38.8207 29.736 38.9956 29.7512 39.1402 29.7284C39.1402 29.8573 39.1858 30.0165 39.1326 30.1075C38.7751 30.6987 38.4023 31.2824 38.022 31.8586C37.946 31.9798 37.8471 32.086 37.7634 32.1997C37.7862 32.2224 37.8014 32.2452 37.8243 32.2755C37.9384 32.23 38.0601 32.1997 38.1665 32.139C38.661 31.8434 39.0641 31.4568 39.3227 30.9337C39.4901 30.6078 39.6422 30.2818 39.8247 29.9634C39.9236 29.7815 40.0758 29.6072 40.3039 29.736C40.5474 29.8801 40.38 30.0696 40.2887 30.2212C39.8856 30.9034 39.4825 31.5781 39.0489 32.2982C39.2695 32.1769 39.4901 32.086 39.6726 31.9571C40.1518 31.6084 40.4561 31.1233 40.6995 30.5926C40.8288 30.3197 40.9809 30.0468 41.1711 29.8118C41.2395 29.7284 41.4525 29.7588 41.597 29.736C41.597 29.8649 41.597 29.9938 41.5894 30.115C41.5894 30.1681 41.5286 30.2136 41.4982 30.2591C41.0646 30.9186 40.631 31.5781 40.1975 32.2452C40.4637 32.1618 40.7223 32.0405 40.9505 31.8737C41.4677 31.4871 41.7568 30.9337 42.0458 30.3804C42.1751 30.1302 42.3196 29.8876 42.5022 29.6754C42.5631 29.6072 42.7532 29.6451 42.8825 29.6299C42.8825 29.7436 42.9282 29.8952 42.8749 29.971C42.4033 30.6533 41.9089 31.3203 41.4221 31.995C41.3841 32.0557 41.3384 32.1087 41.3004 32.1694C41.3308 32.1997 41.3536 32.2376 41.3841 32.2679C41.7187 32.0481 42.1219 31.8813 42.3729 31.5932C42.7684 31.1384 43.0651 30.6002 43.4074 30.0923C43.5519 29.8801 43.6888 29.6602 43.8561 29.4783C43.917 29.4101 44.0691 29.4252 44.1756 29.4101C44.1756 29.5162 44.2213 29.6526 44.1756 29.7284C43.7725 30.3728 43.3465 31.002 42.9206 31.6311C42.8293 31.7676 42.6924 31.8737 42.5783 31.9874C42.6011 32.0178 42.6315 32.0557 42.6543 32.086C42.9129 31.9344 43.1868 31.8131 43.4226 31.6311C44.0387 31.1384 44.4038 30.4713 44.7157 29.7663C44.7993 29.5844 44.9439 29.4176 45.096 29.2812C45.1568 29.2206 45.3014 29.2585 45.4155 29.2509C45.4155 29.3494 45.4459 29.4555 45.4155 29.5465C45.3698 29.6905 45.2938 29.827 45.2101 29.9559C44.7765 30.5926 44.3353 31.2218 43.8637 31.8965C44.0995 31.76 44.3201 31.6539 44.5103 31.5174C45.1644 31.0474 45.5372 30.3728 45.8642 29.6602C45.9631 29.4555 46.0924 29.2509 46.2446 29.0765C46.3054 29.0007 46.4728 29.0159 46.5868 28.9931C46.5868 29.1068 46.6401 29.2357 46.5945 29.3191C46.4119 29.6905 46.2293 30.062 46.0012 30.3955C45.7045 30.8352 45.3622 31.237 45.0351 31.6539C45.0504 31.6766 45.0656 31.6994 45.0884 31.7221C45.3546 31.5478 45.6437 31.3962 45.8947 31.1915C46.4804 30.6987 46.7846 30.0241 47.0661 29.3343C47.1497 29.122 47.2942 28.9325 47.4464 28.7581C47.4996 28.6975 47.6517 28.7127 47.7582 28.6899C47.7582 28.7885 47.7963 28.9022 47.7582 28.9856C47.4464 29.7663 47.0661 30.5017 46.4804 31.1157C46.3891 31.2066 46.2978 31.3052 46.2141 31.3962L46.2826 31.4795C46.5032 31.3355 46.7314 31.2066 46.9367 31.0399C47.5605 30.5244 47.9256 29.827 48.1994 29.0765C48.2831 28.8491 48.4276 28.6444 48.5797 28.4549C48.633 28.3943 48.7851 28.417 48.8916 28.4019C48.8916 28.5004 48.9372 28.6141 48.8992 28.6899C48.6178 29.2433 48.3363 29.7967 48.0321 30.3425C47.8952 30.585 47.705 30.7973 47.5376 31.0323C47.5605 31.055 47.5833 31.0778 47.6061 31.1005C47.8039 30.9489 48.0245 30.8049 48.207 30.6381C48.7927 30.0923 49.1122 29.3873 49.3936 28.6596C49.4697 28.4701 49.5838 28.2882 49.7131 28.1214C49.7587 28.0683 49.9261 28.0456 49.9945 28.0911C50.0554 28.129 50.0858 28.2654 50.0858 28.3564C50.0858 28.4398 50.0249 28.5307 49.9793 28.6141C49.5914 29.3191 49.1958 30.0165 48.8003 30.7139C49.0741 30.532 49.4088 30.3425 49.5914 30.0544C49.9641 29.4783 50.2607 28.8491 50.5878 28.2427C50.6563 28.1062 50.7019 27.947 50.8084 27.8485C50.8921 27.7651 51.0442 27.7575 51.1735 27.7196C51.1887 27.8485 51.2648 28.0001 51.2115 28.0911C50.8312 28.7809 50.4357 29.448 50.0326 30.1302C49.9945 30.1984 49.9413 30.2591 49.888 30.3273C49.9185 30.3576 49.9489 30.3804 49.9793 30.4107C50.276 30.1378 50.6411 29.9104 50.854 29.592C51.1887 29.0765 51.4245 28.4928 51.706 27.947C51.7972 27.7727 51.8733 27.5832 52.0026 27.4391C52.0787 27.3558 52.246 27.3633 52.3753 27.3254C52.3753 27.4391 52.4058 27.5756 52.3601 27.6741C52.033 28.3791 51.6908 29.0765 51.3256 29.8422C51.5995 29.592 51.9037 29.4101 52.0711 29.1372C52.3905 28.6065 52.6187 28.0304 52.8926 27.4695C52.961 27.3254 53.0143 27.1587 53.1208 27.045C53.1892 26.9692 53.349 26.9767 53.4631 26.9464C53.4859 27.0525 53.5467 27.1814 53.5163 27.2648C53.3033 27.7575 53.0675 28.2427 52.8393 28.7278C52.7633 28.887 52.6568 29.0386 52.5655 29.1902C53.0751 28.9931 53.4174 28.6293 53.6608 28.182C53.8586 27.8106 54.0031 27.4088 54.1704 27.0222C54.2769 26.7721 54.4062 26.5674 54.7561 26.5825C54.855 27.2951 54.353 27.7954 54.1172 28.4473C54.7029 28.0911 55.0528 27.6287 55.2506 27.0601C55.3266 26.8403 55.4027 26.6129 55.5396 26.4234C55.6081 26.3324 55.7906 26.3248 55.9275 26.2793C55.9427 26.393 55.996 26.5295 55.958 26.628C55.8134 26.9843 55.6385 27.333 55.4711 27.6741C55.4103 27.803 55.3342 27.9167 55.2277 28.1062C55.6993 27.8864 55.958 27.568 56.1481 27.1966C56.3078 26.8858 56.4219 26.5446 56.6045 26.2414C56.673 26.1277 56.8783 26.0064 56.9772 26.0292C57.213 26.0898 57.0989 26.2945 57.0305 26.4309C56.8023 26.9085 56.5665 27.3861 56.3307 27.8788C56.8707 27.6741 57.1293 27.242 57.3271 26.7569C57.426 26.5143 57.5021 26.2642 57.6314 26.0443C57.677 25.9685 57.8367 25.9534 57.9508 25.9155C57.9737 26.014 58.0345 26.1201 58.0117 26.2111C57.966 26.4006 57.8976 26.5977 57.8063 26.7721C57.639 27.0904 57.4488 27.3861 57.2358 27.7499C57.7531 27.5756 58.0573 27.2496 58.2703 26.8327C58.3996 26.5825 58.4757 26.3021 58.6202 26.0671C58.681 25.9761 58.8636 25.9609 58.9929 25.9079C59.0157 26.014 59.0918 26.1353 59.0614 26.2187C58.9549 26.5295 58.818 26.8251 58.6658 27.1132C58.5593 27.3179 58.4224 27.4922 58.2551 27.7499C58.7723 27.5756 59.0842 27.2951 59.2667 26.8782C59.3732 26.6356 59.4417 26.3627 59.5786 26.1277C59.6395 26.0216 59.7992 25.9837 59.9133 25.9079C59.9437 26.0292 60.0274 26.1732 59.9818 26.2642C59.7688 26.7645 59.5254 27.2496 59.282 27.7499C59.6471 27.6438 59.9361 27.3937 60.1263 27.0298C60.2708 26.7493 60.3697 26.4461 60.5142 26.1656C60.5522 26.0898 60.6815 26.0519 60.7728 25.9988C60.8261 26.0898 60.9325 26.2035 60.9173 26.2717C60.8261 26.5825 60.6968 26.8858 60.5674 27.189C60.4838 27.3709 60.3697 27.5301 60.2708 27.7045C60.3088 27.7348 60.3545 27.7651 60.3925 27.803C60.6207 27.568 60.8793 27.3482 61.0695 27.0904C61.2216 26.8858 61.2748 26.6129 61.4118 26.4006C61.4726 26.3096 61.6476 26.2945 61.7769 26.2414C61.8149 26.3703 61.8681 26.4916 61.8757 26.6204C61.8757 26.6735 61.8149 26.7417 61.7769 26.8024C61.5182 27.1966 61.252 27.5907 60.9934 27.9774C61.0162 28.0077 61.0314 28.0304 61.0543 28.0607C61.3053 27.8864 61.5943 27.7424 61.7921 27.5149C62.0127 27.2648 62.1268 26.9312 62.3169 26.6508C62.3778 26.5598 62.5299 26.5295 62.644 26.4688C62.6896 26.5825 62.7961 26.7114 62.7733 26.81C62.7429 26.9767 62.6516 27.1359 62.5527 27.2875C62.3245 27.6362 62.0887 27.9774 61.8149 28.3791C62.4767 28.1365 62.8646 27.6817 63.1917 27.1587C63.2981 26.9919 63.321 26.6811 63.6176 26.8327C63.9219 26.9843 63.7241 27.2117 63.6328 27.4012C63.5568 27.5604 63.4655 27.712 63.359 27.8561C63.1536 28.1365 62.933 28.4019 62.7048 28.6823C62.7581 28.6975 62.7809 28.7127 62.8037 28.7127C62.8494 28.6975 62.8874 28.6823 62.933 28.6596C63.5187 28.3412 64.0208 27.9243 64.4239 27.3861C64.4771 27.3179 64.5912 27.2951 64.6825 27.2496C64.7129 27.3558 64.789 27.477 64.7662 27.5528C64.6749 27.7954 64.5608 28.0304 64.4315 28.2427C64.2794 28.4928 64.0968 28.7202 63.8914 29.0159C64.4771 28.7581 64.827 28.4019 65.078 27.8712C65.1237 27.7803 65.2454 27.7272 65.3291 27.659C65.3671 27.7878 65.4584 27.9167 65.4355 28.038C65.4051 28.2275 65.2986 28.4094 65.2302 28.5914C65.2606 28.6065 65.291 28.6217 65.3214 28.6444C65.4508 28.4549 65.5725 28.2578 65.7246 28.0911C65.7854 28.0304 65.9224 28.038 66.0212 28.0153C66.0289 28.1062 66.0593 28.2048 66.0441 28.2882C66.006 28.4398 65.9376 28.5838 65.8843 28.7354L65.9604 28.7657C66.1658 28.5762 66.3787 28.3791 66.5841 28.1896C66.6222 28.2199 66.6602 28.2502 66.6906 28.2806C66.4852 28.7051 66.2799 29.122 66.0745 29.5541C67.0101 29.1599 68.1967 27.2799 67.9076 26.3475C67.8011 26.6659 67.7023 26.9464 67.611 27.2193C67.5958 27.2193 67.573 27.2117 67.5577 27.2041C67.5349 26.9009 67.5121 26.5901 67.4893 26.2869C67.4589 26.2869 67.4284 26.2869 67.3904 26.2869C67.2915 26.5143 67.1926 26.7342 67.0785 27.007C67.0177 26.6811 66.972 26.4234 66.9188 26.158C66.8884 26.158 66.8656 26.158 66.8351 26.158C66.7819 26.3627 66.7286 26.5674 66.6678 26.7721C66.5765 26.5067 66.5004 26.2566 66.4168 26.0064C66.394 26.014 66.3635 26.0216 66.3407 26.0292C66.3027 26.2338 66.2646 26.4385 66.2266 26.6432C66.1277 26.5674 66.1277 26.4992 66.1049 26.4385C66.0441 26.2793 65.968 26.1277 65.8995 25.9685C65.8463 26.1277 65.8007 26.2793 65.7474 26.4385C65.7474 26.4537 65.717 26.4537 65.6713 26.484C65.6257 26.3172 65.6029 26.158 65.542 26.0064C65.5116 25.923 65.4127 25.87 65.3519 25.8018C65.3062 25.8776 65.2378 25.9382 65.215 26.0216C65.1845 26.1201 65.1921 26.2263 65.1845 26.4082C65.0248 26.0747 64.9107 25.8321 64.789 25.5819C64.751 25.5971 64.7129 25.6047 64.6749 25.6198C64.6293 25.7714 64.5912 25.923 64.5304 26.1353C64.4011 25.7866 64.4619 25.4227 64.0892 25.2711C64.0284 25.5137 63.9751 25.7335 63.9219 25.9458C63.823 25.7487 63.8002 25.5592 63.7317 25.3848C63.7089 25.3166 63.6024 25.256 63.5263 25.2408C63.4883 25.2408 63.4046 25.3318 63.3742 25.4C63.321 25.5137 63.2905 25.6426 63.2373 25.8397C63.1764 25.7108 63.146 25.6653 63.1308 25.6122C63.0623 25.4152 63.0167 25.2029 62.9254 25.0134C62.8874 24.9376 62.7733 24.8921 62.6896 24.839C62.644 24.9148 62.5907 24.9831 62.5603 25.0664C62.5071 25.1953 62.4614 25.3393 62.4158 25.4682C62.3854 25.4682 62.3473 25.4682 62.3169 25.4682C62.2713 25.2787 62.2561 25.0816 62.1724 24.9148C62.1115 24.786 61.9594 24.7026 61.8453 24.604C61.7769 24.7026 61.7008 24.8011 61.6476 24.9073C61.6019 24.9982 61.5715 25.1119 61.5106 25.2939C61.3509 24.8315 61.2292 24.46 61.0999 24.0886C61.0695 24.0886 61.039 24.0886 61.0086 24.0886C60.9173 24.316 60.8261 24.551 60.712 24.8239C60.6131 24.4752 60.5218 24.1795 60.4381 23.8839C60.4077 23.8839 60.3849 23.8991 60.3545 23.8991C60.3392 24.0658 60.3316 24.2326 60.3164 24.3994H60.2708C60.1415 24.0507 60.0122 23.6944 59.8829 23.3457C59.8677 23.3533 59.8448 23.3608 59.8296 23.3684C59.7764 23.7929 59.7307 24.2174 59.6775 24.6419C59.6471 24.6419 59.609 24.6419 59.5786 24.6419C59.4797 24.0886 59.4189 23.52 59.0233 22.9742C58.9397 23.5125 58.8636 23.9673 58.7952 24.4297C58.5137 23.6716 58.4224 22.8757 58.103 22.1555C58.0573 22.1707 58.0193 22.1783 57.9737 22.1934C58.0421 22.4815 58.103 22.7696 58.1714 23.0349C58.0878 23.3912 58.0041 23.755 57.8976 24.1871C57.677 23.6337 57.7987 23.0576 57.3651 22.5497C57.2739 23.0425 57.1978 23.4442 57.1065 23.8991C56.9164 23.376 56.962 22.8226 56.5056 22.383C56.4448 22.8454 56.3991 23.2471 56.3459 23.6413C56.3155 23.6413 56.2774 23.6413 56.247 23.6413C56.1861 23.3078 56.1405 22.9742 56.0644 22.6483C55.996 22.3223 55.9047 22.0039 55.821 21.6856C55.7906 21.6856 55.7602 21.7007 55.7374 21.7083C55.6689 22.2617 55.6005 22.815 55.532 23.3684C55.2734 22.7468 55.357 22.0646 54.9463 21.4354C54.8778 22.0722 54.8094 22.618 54.7485 23.1713C54.7105 23.1713 54.6801 23.1713 54.642 23.1713C54.5736 22.815 54.5127 22.4588 54.4215 22.1101C54.391 21.9812 54.2769 21.8675 54.2085 21.7462C54.14 21.8599 54.0411 21.9736 54.0031 22.1025C53.9346 22.3602 53.9118 22.6331 53.8662 22.8909C53.7749 22.8302 53.7597 22.7771 53.7445 22.7241C53.6532 22.2768 53.5771 21.822 53.4707 21.3823C53.4478 21.2914 53.3261 21.2307 53.2501 21.1549C53.1968 21.2459 53.1208 21.3293 53.1055 21.4202C53.0599 21.7614 53.0371 22.1025 52.9991 22.4436C52.8393 22.1252 52.7709 21.7993 52.672 21.4809C52.6339 21.3596 52.5199 21.2535 52.4362 21.1398C52.3753 21.2535 52.2764 21.3596 52.2536 21.4809C52.2004 21.731 52.1852 21.9964 52.1547 22.2541C51.9798 21.7765 51.8961 21.3065 51.7896 20.8441C51.7668 20.7456 51.6679 20.6622 51.6071 20.5712C51.5386 20.6698 51.4245 20.7532 51.4017 20.8593C51.3409 21.0715 51.3332 21.299 51.2952 21.5188C51.2724 21.6401 51.2344 21.7614 51.2039 21.8826C51.067 21.443 50.9986 21.0109 50.8921 20.5864C50.8388 20.3817 50.6943 20.1998 50.5954 20.0027C50.5118 20.2149 50.4053 20.4272 50.3444 20.647C50.2912 20.8441 50.276 21.0564 50.2455 21.2686L50.1923 21.2459C50.0326 20.6546 49.8728 20.0558 49.6903 19.3811C49.1122 19.7904 49.4773 20.3893 49.1882 20.8441C49.1426 20.6698 49.1046 20.5409 49.0741 20.412C48.9448 19.889 48.8231 19.3583 48.6786 18.8429C48.6482 18.7292 48.5265 18.6458 48.4428 18.5472C48.4048 18.6685 48.3363 18.7898 48.3363 18.9111C48.3211 19.4114 48.3363 19.9193 48.3363 20.4272H48.2222C48.0321 19.798 47.8495 19.1613 47.6441 18.4714C47.1193 18.9566 47.454 19.5479 47.203 20.0709C47.0356 19.5175 46.8835 19.0096 46.7238 18.5169C46.7009 18.4411 46.6249 18.3805 46.5716 18.3122C46.4956 18.3805 46.3891 18.4259 46.351 18.5093C46.3054 18.6079 46.3206 18.7367 46.3206 18.858C46.3206 19.1385 46.3206 19.419 46.3206 19.6995C46.2902 19.6995 46.2522 19.6995 46.2217 19.707C46.0012 18.9793 45.7806 18.2592 45.5448 17.4632C45.0884 18.0924 45.4155 18.7671 45.1797 19.4342C45.1112 19.2219 45.0808 19.1006 45.0427 18.9793C44.8982 18.5472 44.7537 18.1151 44.594 17.6831C44.5711 17.6148 44.4723 17.5694 44.4114 17.5087C44.3582 17.5769 44.2745 17.6376 44.2517 17.7134C44.2213 17.8347 44.2365 17.9711 44.2213 18.1C44.1984 18.4259 44.168 18.7519 44.1376 19.1613C43.917 18.4942 43.7268 17.9256 43.5291 17.3647C43.4986 17.2813 43.4074 17.2282 43.3389 17.16C43.2781 17.2358 43.1868 17.3116 43.164 17.395C43.1335 17.5011 43.1487 17.63 43.1487 17.7437C43.1487 18.0166 43.1487 18.2895 43.1487 18.5624C42.9053 18.1151 42.738 17.6527 42.5631 17.1979C42.525 17.1069 42.4337 17.0387 42.3653 16.9553C42.3044 17.0539 42.2056 17.1448 42.1827 17.251C42.1523 17.395 42.1751 17.5542 42.1675 17.7058C42.1599 17.8802 42.1447 18.0545 42.1295 18.2289C41.8937 17.8271 41.7492 17.4177 41.5818 17.0236C41.5362 16.9174 41.4221 16.8492 41.346 16.7582C41.2928 16.8719 41.2015 16.9857 41.1939 17.1069C41.1711 17.4102 41.1939 17.7058 41.1939 18.009H41.1102C40.8972 17.4784 40.6767 16.9402 40.4409 16.3489C39.9845 16.8492 40.4104 17.395 40.1746 17.9105C40.0073 17.5466 39.878 17.2358 39.7259 16.9402C39.6498 16.7886 39.5281 16.6597 39.4216 16.5157C39.3836 16.7128 39.3227 16.9023 39.3075 17.0994C39.2999 17.3192 39.3379 17.539 39.3531 17.7664C39.3227 17.7664 39.2923 17.774 39.2619 17.7816C39.1934 17.6527 39.1173 17.5163 39.0565 17.3874C38.95 17.1524 38.8663 16.9098 38.7446 16.6824C38.7066 16.6142 38.5849 16.5839 38.5088 16.5308C38.4708 16.6066 38.4023 16.69 38.4023 16.7658C38.4023 16.9553 38.4404 17.1373 38.4556 17.3268C38.4632 17.4556 38.4556 17.5769 38.4556 17.7058C38.4176 17.7058 38.3871 17.7134 38.3491 17.721C38.197 17.395 38.0524 17.0615 37.8851 16.7431C37.8471 16.6673 37.733 16.6294 37.6569 16.5763C37.6265 16.6597 37.5732 16.7355 37.5656 16.8189C37.558 17.1069 37.5656 17.3874 37.5656 17.6755C37.5352 17.6755 37.4972 17.6906 37.4668 17.6906C37.307 17.3571 37.1625 17.016 36.9875 16.69C36.9419 16.6066 36.8278 16.5536 36.7441 16.4853C36.7061 16.5839 36.6529 16.6824 36.6453 16.781C36.63 17.0463 36.6453 17.3192 36.6453 17.5845C36.4627 17.3571 36.3714 17.1145 36.2497 16.8947C36.1585 16.7355 36.0139 16.6066 35.8998 16.4626C35.8618 16.637 35.8086 16.8113 35.7857 16.9932C35.7629 17.1752 35.7857 17.3647 35.7857 17.5542C35.5651 17.2131 35.4206 16.8719 35.2609 16.5308C35.2305 16.4626 35.1316 16.4323 35.0631 16.3868C35.0327 16.455 34.9718 16.5232 34.9642 16.5915C34.9566 16.8644 34.9642 17.1448 34.9642 17.4935C34.6524 17.0994 34.6828 16.5384 34.1427 16.3565C34.1808 16.7128 34.2112 17.0387 34.2492 17.4405C33.9982 17.0311 33.7776 16.6824 33.5571 16.3262C33.519 16.3413 33.4886 16.3641 33.4506 16.3792C33.443 16.6066 33.4277 16.8416 33.4125 17.1676C33.23 16.8719 33.1083 16.6673 32.9866 16.4702V16.455L32.9638 16.4626ZM14.3965 18.0697C14.4802 18.1455 14.5638 18.2137 14.6475 18.2895C15.3017 18.858 15.9938 19.3962 16.61 20.0027C17.3858 20.7607 18.0932 21.5794 18.329 22.6938C18.6104 24.0507 18.116 25.1498 16.9294 25.5668C16.473 25.726 15.9254 25.7942 15.4462 25.7335C13.7043 25.4985 12.0461 24.9073 10.4107 24.2705C10.3651 24.2478 10.3347 24.1871 10.2586 24.0961C11.5441 24.3842 12.7687 24.6647 13.9934 24.9376C14.0086 24.8997 14.0238 24.8618 14.039 24.8239C13.8793 24.6192 13.7043 24.4373 13.575 24.2174C13.3088 23.7626 12.9132 23.5504 12.396 23.5125C12.0917 23.4897 11.7951 23.3987 11.4984 23.3305C10.1597 23.0046 8.8362 22.6559 7.48987 22.3602C6.79008 22.2086 6.08268 22.2465 5.41332 22.5346C5.31443 22.5725 5.18512 22.7923 5.21555 22.8529C5.58066 23.5504 6.18917 23.9749 6.88135 24.2857C6.53907 23.9294 6.17396 23.6034 5.83167 23.2471C5.74039 23.1486 5.73279 22.9667 5.67954 22.8226C5.83167 22.7847 6.00662 22.671 6.12832 22.7165C6.65316 22.8984 7.20843 23.0652 7.68003 23.3533C10.0152 24.7784 12.4873 25.8397 15.218 26.1505C16.8153 26.3324 18.2986 25.9155 19.6145 24.9679C19.7134 24.8921 19.8427 24.8542 19.9644 24.8011L19.8427 24.6647C19.5004 24.4903 19.1505 24.3084 18.8082 24.1341C18.8234 24.0961 18.8386 24.0658 18.8462 24.0279C18.9984 24.0582 19.1581 24.081 19.3026 24.1265C20.2078 24.3842 21.1054 24.6723 22.0181 24.8921C23.2504 25.1953 24.5054 25.3545 25.7529 25.0361C27.9816 24.4676 29.4876 23.0349 30.4765 21.0109C30.8948 20.1619 31.1839 19.275 31.1534 18.3047C31.1154 17.1221 30.5677 16.1442 29.8832 15.227C29.5561 14.7873 29.2214 14.3401 28.8943 13.9004C28.9247 13.8701 28.9476 13.8398 28.978 13.8094C29.267 14.0368 29.5713 14.2567 29.8451 14.4993C31.161 15.6591 31.9673 17.069 31.876 18.8808C31.6859 22.4436 28.9324 25.3848 25.3802 25.779C24.2012 25.9079 23.007 25.923 21.828 25.9988C21.5009 26.0216 21.1738 26.0822 20.8543 26.1277V26.2414C22.1398 27.0677 23.509 27.5528 25.0759 27.2345C26.0799 27.0298 27.0155 26.6887 27.7229 25.8776C27.9435 25.6198 28.2402 25.3924 28.552 25.256C30.3776 24.4145 31.4957 23.0121 31.9749 21.0791C31.9901 21.0185 32.0358 20.9654 32.0662 20.9123C32.0966 20.9199 32.1271 20.9275 32.1651 20.9427C32.0206 21.5794 31.9217 22.2313 31.7315 22.8529C31.3056 24.2781 30.5829 25.5743 29.8527 26.863C29.4116 27.6438 28.727 28.182 27.9055 28.5383C27.6849 28.6369 27.4567 28.7051 27.2361 28.7885C27.2437 28.8188 27.2513 28.8491 27.2589 28.8794C27.6241 28.8036 27.9968 28.7581 28.3467 28.652C29.3963 28.3336 30.0809 27.5907 30.6286 26.6659C32.0814 24.1947 32.8725 21.5794 32.4009 18.6837C32.1118 16.9099 31.4197 15.3483 29.9364 14.2415C29.2594 13.7412 28.5368 13.2864 27.8218 12.8391C27.6545 12.733 27.4263 12.6951 27.2209 12.6799C26.1636 12.6117 25.1368 12.7557 24.1251 13.059C23.7752 13.1651 23.4329 13.2712 23.083 13.3773C23.8513 12.7254 24.7869 12.4146 25.692 12.0508C25.5703 12.0356 25.4562 12.0508 25.3421 12.0659C24.2772 12.2554 23.2884 12.6572 22.3452 13.1803C21.7063 13.529 21.0597 13.7943 20.2763 13.6654C20.6338 13.9535 20.9989 14.2491 21.3564 14.5372L21.3259 14.5902C20.9532 14.3931 20.5881 14.196 20.2458 14.0065V15.75C20.4056 15.5529 20.5653 15.3634 20.725 15.1663L20.8087 15.2118C20.5957 15.6439 20.3827 16.076 20.1393 16.5839C20.5121 16.2731 20.8239 16.0078 21.1358 15.7425C20.7935 16.9629 19.8731 17.5163 18.7626 17.8498C17.7205 18.1682 16.6784 18.1606 16.2372 17.6831C17.5912 17.8574 18.4735 17.5466 18.9832 16.6824C19.3178 16.1139 19.3711 15.5302 19.044 14.9313C19.1201 15.4544 19.0897 15.9623 18.8082 16.4247C18.1008 17.5997 16.6708 17.8271 15.469 16.9553C15.3625 16.8795 15.256 16.8113 15.1419 16.7431C15.1267 16.7658 15.1039 16.7886 15.0887 16.8113C15.2104 16.9932 15.3321 17.1752 15.4462 17.3495C15.0811 17.6452 15.5603 17.7285 15.5831 17.9635C14.1759 17.2586 12.86 16.3641 11.2474 16.22C11.3387 16.2807 11.4376 16.3034 11.5289 16.3413C12.3656 16.6521 13.2403 16.8795 14.0238 17.2889C15.4005 18.0014 16.7241 18.8126 18.0628 19.5933C18.5876 19.9041 19.0136 20.3211 19.3255 20.8517C19.5917 21.2989 19.7286 21.7841 19.6677 22.4057C18.4051 20.2832 16.3361 19.2598 14.4041 18.0772L14.3965 18.0697ZM73.0115 16.9629C72.9887 16.9174 72.9735 16.8719 72.9507 16.8265C72.0912 17.1903 71.186 17.4784 70.3797 17.9408C69.1018 18.6685 67.9076 19.5251 66.6526 20.2907C66.1962 20.5712 65.7094 20.8744 65.1921 20.973C63.0167 21.3823 60.9706 21.064 59.2059 19.6312C58.6887 19.2067 58.1942 18.7519 57.7226 18.2743C56.1253 16.6597 54.3834 15.2421 52.421 14.0975C48.884 12.0432 45.0504 10.8151 41.0494 10.0647C40.3268 9.92823 39.5965 9.8221 38.8663 9.70081C38.8131 9.69323 38.7522 9.71597 38.699 9.71597C38.5697 9.71597 38.4328 9.73113 38.3035 9.71597C38.0524 9.69323 37.771 9.56436 37.5732 9.64017C37.4059 9.70839 37.3298 9.71597 37.1853 9.64017C37.0788 9.57952 36.8811 9.5113 36.8278 9.55678C36.5312 9.8221 36.2802 9.55678 36.0063 9.51888C35.9379 9.5113 35.8542 9.5113 35.8009 9.54162C35.4815 9.71597 35.1924 9.63259 34.9034 9.4734C34.873 9.45824 34.8349 9.45824 34.8045 9.45824C34.7665 9.54162 34.7284 9.61743 34.6904 9.68565C34.5079 9.62501 34.3557 9.53404 34.196 9.53404C33.8385 9.53404 33.4734 9.57952 33.055 9.60985C32.8421 9.90548 32.5074 9.5113 32.2183 9.61742C32.2031 9.68565 32.1879 9.76146 32.1727 9.83726C31.876 9.83726 31.5718 9.37485 31.3436 9.8979C31.0698 9.85242 30.7959 9.80694 30.4993 9.76145V10.0419C30.1722 9.98129 29.8603 9.92823 29.5257 9.87516C29.6474 10.2163 29.5104 10.2542 29.267 10.1784C29.0769 10.1177 28.8867 10.0647 28.6889 10.0192C28.6585 10.0192 28.6281 10.0344 28.5901 10.0419C28.6281 10.1405 28.6661 10.2239 28.727 10.3831C28.3847 10.3452 28.0956 10.3148 27.799 10.2769C27.7914 10.3755 27.7838 10.4589 27.7762 10.5726C27.5556 10.5422 27.3654 10.5195 27.1981 10.5043C27.0155 11.0122 26.407 10.7545 26.1408 11.1411C27.5708 11.1335 28.9704 11.1108 29.9364 12.3995C29.9592 12.3767 29.9744 12.354 29.9973 12.3312C29.7538 11.8916 29.5104 11.4443 29.267 11.0047L29.3355 10.9288C29.7615 11.3155 30.1798 11.7021 30.6058 12.0962C30.6286 12.0962 30.6438 12.0811 30.6666 12.0811C30.446 11.6717 30.2254 11.27 29.982 10.8227C30.659 11.0805 30.9709 11.649 31.3512 12.1569C31.374 12.1417 31.4044 12.1266 31.4273 12.1114C31.2447 11.649 31.0622 11.1942 30.8872 10.7318C30.9252 10.709 30.9557 10.6863 30.9937 10.6635C31.3664 11.1259 31.7467 11.5808 32.1194 12.0432C32.1347 12.0432 32.1499 12.028 32.1575 12.028C31.9901 11.5732 31.8228 11.1184 31.625 10.5953C32.2716 10.9819 32.5682 11.558 32.9409 12.0887C32.7736 11.5959 32.5986 11.1108 32.4161 10.5801C33.055 10.8 33.23 11.3761 33.6179 11.7854C33.4886 11.3685 33.3593 10.944 33.2148 10.4892C33.8233 10.8 34.0363 11.3761 34.3557 11.8688C34.3785 11.8537 34.409 11.8385 34.4318 11.8309C34.2949 11.3913 34.158 10.9516 34.021 10.5119C34.0515 10.4892 34.0819 10.4664 34.1199 10.4513C34.447 10.8834 34.7665 11.3079 35.1468 11.8158C35.0327 11.323 34.9338 10.9061 34.8425 10.4892C34.873 10.474 34.9034 10.4589 34.9338 10.4513C35.2153 10.8758 35.5043 11.3003 35.839 11.8082C35.7477 11.323 35.6792 10.9364 35.6108 10.5498C35.6412 10.5347 35.6716 10.5195 35.7097 10.5043C35.9911 10.9592 36.2725 11.414 36.554 11.8688C36.5768 11.8612 36.592 11.8461 36.6148 11.8385C36.4931 11.4064 36.3638 10.9743 36.2421 10.5422C36.2725 10.5195 36.3106 10.5043 36.341 10.4816C36.6529 10.9061 36.9647 11.3306 37.2766 11.7551C37.2994 11.7475 37.3146 11.7324 37.3374 11.7248C37.2157 11.3458 37.0864 10.9668 36.9495 10.5422C37.5352 10.7772 37.6721 11.3382 38.0372 11.7172C37.9536 11.3382 37.8699 10.9592 37.7862 10.5801C37.8243 10.565 37.8547 10.5422 37.8927 10.5271C38.2046 10.9592 38.5164 11.3913 38.8511 11.8612C38.7522 11.4292 38.661 11.0426 38.5545 10.5801C39.163 10.944 39.2467 11.558 39.5965 12.0204C39.5053 11.6111 39.4216 11.2017 39.3151 10.7318C39.878 11.0501 39.9312 11.6642 40.3344 12.0962C40.2507 11.6263 40.1746 11.2169 40.0986 10.8151C40.129 10.8 40.167 10.7848 40.1975 10.7697C40.4865 11.2472 40.7755 11.7248 41.0722 12.1948C41.0874 12.1872 41.1102 12.1796 41.1254 12.1645C41.0266 11.7627 40.9201 11.3534 40.8212 10.9516C40.8668 10.9364 40.9049 10.9137 40.9505 10.8985C41.2319 11.3155 41.521 11.7324 41.8024 12.1569C41.8176 12.1569 41.8252 12.1417 41.8404 12.1417C41.7568 11.7854 41.6731 11.4216 41.5894 11.0653C41.6275 11.0501 41.6655 11.035 41.7035 11.0198C41.9698 11.3609 42.236 11.6945 42.5022 12.0356C42.5174 12.028 42.5326 12.0129 42.5478 12.0053C42.4946 11.7248 42.4413 11.4519 42.3881 11.179C42.4261 11.1563 42.4642 11.1411 42.5022 11.1184C42.7912 11.505 43.0803 11.8916 43.4302 12.3616C43.3237 11.9371 43.24 11.6111 43.1487 11.2776C43.1868 11.2548 43.2248 11.2321 43.2628 11.2093C43.5519 11.5884 43.8409 11.9674 44.1528 12.3767C44.0995 12.0508 44.0615 11.7627 44.0159 11.4671C44.0539 11.4519 44.0843 11.4367 44.1224 11.4216C44.3962 11.8233 44.67 12.2251 44.9439 12.6269C44.9591 12.6269 44.9743 12.6117 44.9819 12.6041C44.9134 12.2858 44.845 11.9598 44.7765 11.6414C44.8069 11.6263 44.845 11.6111 44.8754 11.5959C45.1416 11.9446 45.4002 12.2933 45.7273 12.7178C45.6284 12.354 45.56 12.0811 45.4839 11.8082C45.5219 11.7854 45.5524 11.7703 45.5904 11.7475C45.8414 12.0356 46.0924 12.3161 46.3739 12.6496C46.3282 12.3843 46.2978 12.1796 46.2674 11.9674C46.3054 11.9522 46.3434 11.9295 46.3891 11.9143C46.6325 12.2782 46.8759 12.642 47.1269 13.0135C47.1421 13.0059 47.1573 12.9983 47.1801 12.9907C47.1269 12.7103 47.0737 12.4374 47.0128 12.1569C47.0432 12.1417 47.0813 12.1266 47.1117 12.1038C47.3703 12.4601 47.6365 12.824 47.9408 13.2485C47.9028 12.9301 47.8723 12.6875 47.8419 12.4449C47.8723 12.4298 47.9104 12.4146 47.9408 12.407C48.1994 12.7861 48.4656 13.1575 48.7775 13.6048C48.7319 13.2712 48.7014 13.0135 48.671 12.7633C48.7014 12.7482 48.7395 12.733 48.7699 12.7178C48.9981 13.0286 49.2263 13.347 49.4469 13.6578C49.4697 13.6427 49.4849 13.6275 49.5077 13.6123C49.4773 13.4304 49.4393 13.2485 49.4088 13.0665C49.4393 13.0514 49.4697 13.0362 49.5077 13.0211C49.7891 13.4001 50.0782 13.7715 50.4129 14.2264C50.3444 13.908 50.2912 13.673 50.2379 13.438C50.2684 13.4228 50.2988 13.4077 50.3292 13.3925C50.6106 13.7336 50.8997 14.0823 51.1811 14.4235C51.1963 14.4159 51.2115 14.4083 51.2268 14.4007C51.1583 14.1885 51.0898 13.9686 51.0214 13.7564L51.0975 13.7185C51.3941 14.0596 51.6831 14.4007 52.0406 14.8176C51.9722 14.5523 51.9342 14.3855 51.8961 14.2188C51.9189 14.2036 51.9494 14.1885 51.9722 14.1657C52.2612 14.5447 52.5427 14.9238 52.885 15.371C52.8241 15.1057 52.7785 14.9162 52.7328 14.7343C52.7633 14.7191 52.7861 14.7039 52.8165 14.6888C53.0979 15.0375 53.3718 15.3938 53.6912 15.7955C53.6456 15.5757 53.6152 15.4241 53.5848 15.2649C53.6152 15.2497 53.638 15.227 53.6684 15.2118C53.9499 15.5605 54.2389 15.9092 54.566 16.3034C54.5356 16.1518 54.5203 16.0684 54.5051 15.985C54.5356 15.9623 54.566 15.9471 54.5964 15.9244C54.8398 16.2276 55.0832 16.5232 55.357 16.8568V16.4171C55.6537 16.7658 55.8895 17.0463 56.1481 17.3495C56.1709 17.2586 56.1861 17.1903 56.2014 17.1524C56.5893 17.5163 56.9772 17.8726 57.3575 18.244C58.3996 19.2446 59.4645 20.2301 60.7728 20.8896C62.7809 21.913 64.7662 21.9205 66.721 20.7607C67.9761 20.0178 69.2312 19.275 70.4786 18.5245C71.3229 18.0166 72.1596 17.5011 73.0039 16.9857L73.0115 16.9629ZM39.7715 5.64525C39.7715 5.64525 39.7943 5.66799 39.8095 5.67558C40.2887 5.01607 40.7679 4.35657 41.2547 3.68949C40.9657 3.71223 40.6843 3.8032 40.4485 3.73497C40.1594 3.65159 39.9617 3.68949 39.7563 3.88658C39.7106 3.93206 39.5889 3.95481 39.5433 3.92448C39.4901 3.88658 39.4596 3.78045 39.4748 3.71223C39.4977 3.59094 39.5509 3.46207 39.6194 3.35595C39.8019 3.06789 40.0073 2.78741 40.1975 2.50693C40.1746 2.48419 40.1594 2.45387 40.1366 2.43113C39.6802 2.71919 39.2238 2.99966 38.7598 3.28772C38.7598 3.27256 38.7598 3.22708 38.737 3.18918C38.661 3.03757 38.5849 2.88596 38.5012 2.73435C38.3719 2.84806 38.1894 2.93144 38.1133 3.07547C37.3146 4.50818 36.7061 6.0167 36.2573 7.58586C36.2269 7.69198 36.2573 7.81327 36.2573 7.93456C36.3562 7.85875 36.4855 7.79811 36.5464 7.69956C36.7137 7.41151 36.8506 7.10071 37.0028 6.80507C37.0332 7.03248 36.9875 7.22199 36.9647 7.41909C36.9419 7.6086 36.9267 7.79811 36.9115 7.98762C36.9419 7.98762 36.9723 7.9952 37.0028 8.00278C37.5352 6.84297 38.0372 5.66041 38.988 4.66737C38.95 4.86446 38.9196 4.99333 38.8815 5.198C39.1097 5.00849 39.2771 4.87962 39.4901 4.70527C39.4748 4.87962 39.4672 4.97059 39.4444 5.18284C39.7639 4.91753 39.9997 4.71285 40.2355 4.50818C40.2507 4.51576 40.2659 4.53092 40.2811 4.5385C40.1138 4.90995 39.9464 5.27381 39.7791 5.64525H39.7715ZM36.1356 5.23591C36.1356 5.23591 36.1813 5.25865 36.2041 5.26623C36.767 4.1898 37.3374 3.10579 37.9079 2.0142C37.3831 2.2871 36.9267 2.54484 36.4551 2.75709C35.9074 3.00725 35.8998 2.99208 35.588 2.45387C35.3598 2.77983 35.1392 3.08305 34.8806 3.43175C34.8578 3.31805 34.8425 3.27256 34.8425 3.22708C34.8349 3.00725 34.7665 2.81773 34.5079 2.82531C34.2416 2.82531 34.2492 3.04515 34.2188 3.22708C34.0363 4.22012 33.8461 5.21317 33.6483 6.19863C33.5571 6.64588 33.443 7.09312 33.3517 7.54037C33.3365 7.60102 33.3973 7.67682 33.4201 7.74505C33.4886 7.70714 33.5723 7.69198 33.6103 7.63134C33.6712 7.53279 33.7016 7.41909 33.7472 7.30538C33.8385 7.09313 33.9298 6.88087 34.021 6.6762C34.0363 6.94152 33.983 7.18409 33.9602 7.42667C33.9526 7.52521 33.9982 7.63134 34.021 7.73747C34.0819 7.65408 34.1656 7.58586 34.2036 7.49489C34.6296 6.52459 35.0251 5.55429 35.4739 4.59157C35.6108 4.28835 35.8618 4.03819 36.052 3.76529C36.0748 3.78045 36.09 3.79562 36.1128 3.81078L36.0139 4.30351C36.0139 4.30351 36.0672 4.31867 36.0976 4.32625C36.2954 4.09883 36.5007 3.87142 36.6985 3.64401C36.7137 3.65917 36.7365 3.66675 36.7518 3.68191C36.5464 4.19738 36.3334 4.71285 36.128 5.22833L36.1356 5.23591ZM15.4538 27.2724C15.431 27.333 15.4081 27.3937 15.3853 27.4467C16.0471 27.7803 16.686 28.1972 17.3858 28.4398C19.5917 29.2054 21.866 29.357 24.1631 28.9098C25.4334 28.6672 26.6885 28.3412 27.799 27.6211C28.5901 27.1056 29.1758 26.4082 29.5713 25.5516C29.4496 25.6047 29.3507 25.6729 29.2594 25.7563C27.5708 27.2724 25.5779 28.1593 23.3797 28.6369C21.5998 29.0235 19.8579 28.9856 18.1769 28.1896C17.614 27.9243 17.0283 27.7045 16.4426 27.4922C16.1308 27.3785 15.7885 27.3406 15.4614 27.2648L15.4538 27.2724ZM42.6924 3.65917C42.0991 3.8411 41.6807 4.06851 41.4069 4.51576C41.2547 4.75834 41.1026 4.99333 40.9657 5.23591C40.4485 6.18347 39.9312 7.12345 39.4216 8.07859C39.3836 8.15439 39.4216 8.28326 39.4368 8.38939C39.5129 8.33632 39.6194 8.29842 39.6726 8.22262C39.8171 8.01794 39.9388 7.79811 40.0758 7.58586C40.0986 7.59344 40.1214 7.6086 40.1366 7.61618C40.0834 7.87391 40.0225 8.13165 39.9693 8.38181C39.9997 8.38939 40.0377 8.40455 40.0681 8.41213C40.342 7.98004 40.6082 7.54037 40.8896 7.11587C41.4601 6.25927 41.597 6.1304 41.9317 6.0167C41.8937 6.12282 41.8633 6.23653 41.7948 6.44878C42.1447 6.20621 42.4033 6.03186 42.7304 5.80444C42.525 6.16073 42.3653 6.42604 42.2132 6.69136C42.2284 6.69894 42.2512 6.7141 42.2664 6.72168C42.7684 6.19863 43.2704 5.68316 43.8105 5.1222C43.1716 5.09188 42.6163 5.06156 41.9926 5.03123C41.9241 4.53092 42.3501 4.16706 42.6924 3.65917ZM12.5557 23.1941C12.1222 22.4284 11.856 22.1631 11.2779 21.9888C10.1673 21.6552 9.05679 21.3217 7.93104 21.0185C7.19322 20.8214 6.43258 20.7077 5.66433 20.8365C5.33725 20.8896 5.08624 21.0488 4.94172 21.443C5.71757 21.0412 6.45539 21.1928 7.18561 21.3823C7.83976 21.5567 8.4787 21.7917 9.12525 22.0115C10.251 22.3981 11.3767 22.7847 12.5481 23.1865L12.5557 23.1941ZM42.7989 9.03373C42.7989 9.03373 42.8673 9.04889 42.8977 9.05647C43.5671 8.38939 43.9398 7.31296 45.2025 7.40393C45.0808 7.58586 44.9743 7.75263 44.8754 7.91182C44.8906 7.9194 44.9058 7.93456 44.921 7.94214C45.2633 7.63892 45.598 7.32812 45.9631 7.00216C45.6817 6.9491 45.4383 6.96426 45.2633 6.85813C44.8678 6.61555 44.5103 6.56249 44.1452 6.9491C44.1148 6.91877 44.0919 6.88845 44.0615 6.85813C44.2897 6.42604 44.5103 5.99396 44.7385 5.56945C44.7157 5.53913 44.6928 5.51639 44.67 5.48606C44.4875 5.58461 44.2745 5.65283 44.1224 5.7817C43.1868 6.58523 42.6848 7.6844 42.1827 8.76841C42.1599 8.81389 42.1827 8.87454 42.1827 8.9276L42.274 8.98825C42.3957 8.8518 42.525 8.71535 42.6467 8.58648C42.7836 8.44245 42.9129 8.29842 43.1107 8.09375C42.9814 8.48035 42.8901 8.76083 42.7989 9.04131V9.03373ZM42.2512 19.7298C42.2512 19.7298 42.2588 19.6616 42.2664 19.6237C41.9469 19.5782 41.6275 19.5175 41.3004 19.5024C39.9084 19.4342 38.5621 19.6767 37.2233 20.033C36.0976 20.3362 34.9947 20.7077 33.9982 21.3217C33.7624 21.4657 33.5571 21.6477 33.3365 21.8144C33.3517 21.8372 33.3669 21.8675 33.3821 21.8902C36.2421 20.7986 39.1478 19.8738 42.2436 19.7298H42.2512ZM33.5114 3.71981C33.055 4.10641 32.6747 4.43238 32.2944 4.76592C32.089 4.94027 31.9217 5.03123 31.8228 4.67495C31.8076 4.61431 31.7087 4.56882 31.587 4.47028C31.5566 4.76592 31.549 4.97059 31.5185 5.17526C31.4044 5.98637 31.2827 6.79749 31.1762 7.61618C31.1686 7.70714 31.2371 7.80569 31.2751 7.89666C31.3664 7.84359 31.4805 7.80569 31.5337 7.72989C31.6098 7.61618 31.625 7.46457 31.6935 7.34328C32.051 6.63072 32.4237 5.91815 32.7888 5.21317C32.8268 5.22833 32.8649 5.24349 32.9105 5.25865V5.81202C32.9105 5.81202 32.9638 5.81202 32.9866 5.8196C33.1615 5.14494 33.3289 4.47028 33.519 3.72739L33.5114 3.71981ZM32.0662 33.5566C33.1691 35.1864 34.4546 36.6418 36.2573 37.5363C35.1696 35.8838 33.7548 34.58 32.0662 33.5566ZM14.6019 15.2649C15.3701 13.9762 16.6252 13.4077 18.3747 13.5744C18.1617 13.4532 18.04 13.3773 17.9107 13.3167C17.15 12.9756 16.3894 13.059 15.6439 13.347C14.5714 13.764 13.5065 14.196 12.4493 14.6509C11.9016 14.8859 11.392 15.1967 10.8671 15.4771C10.8823 15.5075 10.8975 15.5378 10.9051 15.5681C11.4908 15.3331 12.0841 15.0981 12.7003 14.8555C12.7155 15.1512 12.7687 15.4317 13.0882 15.4089C13.2327 15.4013 13.4153 15.2497 13.4989 15.1133C13.6815 14.8101 13.324 14.7797 13.149 14.613C13.7119 14.3855 14.2368 14.1733 14.8148 13.9383C14.6551 14.4083 14.4117 14.7949 14.5943 15.2725L14.6019 15.2649ZM42.0002 20.4348C42.0002 20.4348 41.985 20.3741 41.9698 20.3438C39.8095 20.3438 37.8319 21.0715 35.8998 21.9433C37.9384 21.5415 39.9845 21.1398 42.023 20.738C42.023 20.7228 42.023 20.7001 42.023 20.6849C41.9393 20.6622 41.8557 20.6394 41.7492 20.6091C41.8557 20.5409 41.9317 20.4878 42.0078 20.4348H42.0002ZM27.5023 9.01857C24.4218 9.42033 21.577 10.4664 18.968 12.1341C21.7899 11.035 24.5435 9.73871 27.5023 9.01857ZM16.0091 16.4095C15.3929 15.4241 15.6363 14.5144 16.5035 14.4462C16.5111 15.1967 16.61 15.4013 16.9827 15.4468C17.325 15.4847 17.5227 15.2725 17.7357 14.5675C17.9563 14.848 18.1465 15.0905 18.3366 15.3255C18.2758 14.5599 17.8118 14.0293 17.1272 13.9459C16.5035 13.8625 15.7656 14.3704 15.507 15.0223C15.3321 15.462 15.4842 16.22 16.0091 16.4171V16.4095ZM32.2944 32.7379L32.2335 32.8137C32.4693 33.026 32.6899 33.2534 32.9409 33.4429C33.8537 34.1327 34.7741 34.8225 35.7097 35.4896C35.8922 35.6185 36.1356 35.6564 36.3562 35.7322C36.3714 35.7019 36.3866 35.664 36.4019 35.6336C35.2533 34.3601 33.8917 33.3822 32.302 32.7303L32.2944 32.7379ZM53.0371 37.1801C53.0827 37.1346 53.136 37.0891 53.1892 37.0436C52.1243 35.7928 51.067 34.5496 50.0021 33.2989C49.9641 33.3368 49.9185 33.3671 49.8804 33.405C50.6182 34.9287 51.4474 36.3841 53.0371 37.1801ZM54.2617 36.6039C53.3261 35.2167 52.1547 34.0493 50.8769 32.9805C51.706 34.4662 52.5883 35.899 54.2617 36.6039ZM55.0072 8.07101C53.1816 8.56374 51.6223 9.56436 50.1238 10.6635C51.8048 9.8979 53.6304 9.40517 55.0072 8.07101ZM51.9722 32.6318C52.8393 33.928 53.6684 35.2622 55.243 35.8156C54.4062 34.4966 53.1968 33.549 51.9722 32.6318ZM39.878 24.1037C39.9312 24.0203 39.9769 23.9521 40.0301 23.8763C39.9541 23.8384 39.8856 23.7778 39.8019 23.755C39.665 23.7171 39.5205 23.6716 39.3912 23.6868C38.1057 23.8005 36.8202 23.9218 35.5347 24.0507C35.5347 24.0886 35.5347 24.1341 35.5423 24.172C37.0332 24.2478 38.524 24.4448 40.1062 24.2478C39.9769 24.1644 39.916 24.1265 39.878 24.1037ZM47.0889 8.60922C46.6021 8.29084 46.5716 8.22262 46.6553 7.79811C46.6781 7.69198 46.6401 7.58586 46.6249 7.47215C46.5184 7.51005 46.3815 7.53279 46.2978 7.60102C45.7045 8.09375 45.3242 8.73051 45.0275 9.42791C45.0123 9.45824 45.0275 9.50372 45.0275 9.59468C45.3622 9.32937 45.6589 9.09437 45.9555 8.85938C45.9707 8.88212 45.9859 8.89728 45.9935 8.91244C45.8642 9.1626 45.7425 9.42033 45.6132 9.67049C45.6437 9.67807 45.6665 9.69323 45.6969 9.70081C46.1533 9.33695 46.6097 8.97309 47.0813 8.60164L47.0889 8.60922ZM53.3794 7.82085C51.6831 8.12407 50.1467 8.81389 48.671 9.66291C48.8612 9.61743 49.0513 9.5492 49.2339 9.48856C49.3252 9.45824 49.4773 9.40517 49.4925 9.43549C49.7359 9.77662 49.9717 9.49614 50.1847 9.42791C51.3256 9.04131 52.3601 8.45003 53.3718 7.82085H53.3794ZM41.7872 21.7462C39.8247 21.352 38.0524 22.0797 36.2573 22.6559C38.0905 22.2768 39.9845 22.2996 41.7872 21.7462ZM48.9372 33.5111C48.9372 33.5111 48.8764 33.5566 48.846 33.5793C49.5077 35.1409 50.2912 36.6039 51.782 37.5439C51.8125 37.5212 51.8505 37.4984 51.8809 37.4681C50.8997 36.1491 49.9185 34.8301 48.9372 33.5035V33.5111ZM53.2881 11.7248C54.9387 11.2017 56.5817 10.6711 57.8976 9.46582C56.209 9.8979 54.7714 10.853 53.2881 11.7248ZM34.9338 24.8315C36.4703 25.074 37.9764 25.5289 39.6498 25.491C39.4292 25.3697 39.2923 25.3014 39.0945 25.1953C39.3151 25.1726 39.4368 25.165 39.5661 25.1498C38.0448 24.6419 36.4855 24.8011 34.9338 24.839V24.8315ZM34.3481 25.4985C35.9607 25.9609 37.5428 26.5598 39.2467 26.6508C37.7406 25.7335 36.0672 25.5137 34.3481 25.4985ZM22.9537 27.9774C22.2843 27.6893 21.6834 27.4316 21.0825 27.1738C20.6718 26.9919 20.2763 26.7948 19.8655 26.6204C19.6297 26.5219 19.3863 26.484 19.1657 26.7417C20.2534 27.6438 21.4629 28.0986 22.9461 27.9774H22.9537ZM40.7984 23.1258C40.7984 23.1258 40.7984 23.0804 40.7984 23.0652C40.6995 23.0425 40.6006 23.0121 40.4028 22.9591C40.6538 22.8833 40.806 22.8378 40.9581 22.7923C39.2619 22.5118 37.6797 22.9591 36.1052 23.4291C37.6721 23.3229 39.2314 23.2244 40.7984 23.1183V23.1258ZM32.5682 32.2376C33.7852 32.9881 34.911 33.9205 36.4855 34.1858C35.3598 33.0487 34.0287 32.5181 32.5682 32.2376ZM53.0675 32.1769C53.8282 33.3974 54.779 34.3829 56.1329 34.9135C55.3342 33.7461 54.2237 32.9274 53.0675 32.1769ZM72.4182 18.3426C70.6612 18.8656 69.1247 19.7753 67.7479 20.9654C69.4137 20.2907 70.9122 19.3053 72.4182 18.3426ZM66.2114 30.9792C66.2114 30.9792 66.1353 31.0323 66.1049 31.055C66.7743 32.2679 67.4436 33.4808 68.113 34.6937C68.1434 34.6785 68.1739 34.6633 68.2043 34.6482C68.0598 34.2464 67.9076 33.8522 67.7631 33.4505C67.7783 33.4429 67.7935 33.4277 67.8164 33.4201C67.8848 33.4732 67.9533 33.5338 68.0293 33.5869C67.6414 32.556 67.0633 31.669 66.219 30.9792H66.2114ZM21.0521 28.2427C20.1926 27.8712 19.3026 27.4846 18.4051 27.1132C18.1693 27.0146 17.9107 26.9995 17.5684 26.9312C18.1845 27.8106 20.2839 28.5383 21.0521 28.2427ZM58.8256 10.1177C57.3727 10.474 56.1329 11.1411 54.8398 11.8688C56.0492 11.7779 58.1486 10.8606 58.8256 10.1177ZM36.4247 14.3097C36.4247 13.961 36.052 13.5972 35.6869 13.5972C35.3674 13.5972 35.1012 13.8625 35.1012 14.1733C35.1012 14.5296 35.4739 14.8859 35.839 14.8934C36.1432 14.8934 36.4247 14.6205 36.4247 14.3097ZM47.6898 33.405C48.245 35.0045 49.5381 36.801 50.3825 37.1725C49.4849 35.9141 48.5873 34.6633 47.6898 33.405ZM52.0939 10.8303C53.2957 10.4664 55.6157 9.04131 56.0112 8.42729C54.5127 8.9655 53.3185 9.92823 52.0939 10.8303ZM55.57 12.5587C56.9772 12.2706 58.354 11.9295 59.4949 11.0122C58.0878 11.2851 56.8175 11.9067 55.57 12.5587ZM54.102 31.6084C54.9159 32.6166 55.7754 33.5793 57.0533 34.0038C56.2622 32.9729 55.1821 32.2906 54.102 31.6084ZM53.8966 10.5953C55.0452 10.2466 56.1557 9.81452 56.9848 8.8897C55.8286 9.23082 54.817 9.8221 53.8966 10.5953ZM56.498 13.112C56.498 13.112 56.5284 13.1878 56.536 13.2257C57.3499 13.203 59.5482 12.5662 60.0046 11.8461L56.4904 13.112H56.498ZM43.8942 15.1436C43.8942 14.8404 43.5671 14.5068 43.2628 14.4993C42.9814 14.4993 42.6848 14.7797 42.6848 15.0526C42.6848 15.3483 43.027 15.697 43.3161 15.7046C43.5975 15.7046 43.8942 15.4241 43.8942 15.1512V15.1436ZM40.0986 14.4083C40.0986 14.0975 39.7715 13.7943 39.4444 13.8019C39.1478 13.8019 38.8968 14.052 38.9044 14.3401C38.9044 14.6433 39.2619 14.9768 39.5585 14.9617C39.8323 14.9541 40.0986 14.6736 40.0986 14.4083ZM33.306 31.8131C34.196 32.2376 35.1164 32.5408 36.1737 32.6014C35.5728 31.9571 34.4318 31.6463 33.306 31.8131ZM68.3184 21.5036C69.543 21.1398 70.6535 20.5561 71.688 19.8056C70.4406 20.124 69.3452 20.7456 68.3184 21.5036ZM68.8432 22.9894C69.5354 23.0425 71.939 22.3678 72.3802 22.0115C71.1175 22.1707 69.9462 22.4588 68.8432 22.9894ZM71.3001 27.6362C71.1936 27.5604 71.0871 27.4695 70.973 27.4012C70.5014 27.1435 70.0298 26.8858 69.543 26.6508C69.4593 26.6053 69.3224 26.6508 69.2159 26.6583C69.2464 26.7796 69.2312 26.9691 69.3072 27.0222C69.9005 27.4088 70.5699 27.5907 71.3001 27.6362ZM37.1397 27.1511C36.4779 26.7038 34.1656 25.9761 33.3973 25.9685C34.622 26.4916 35.8009 26.9161 37.1397 27.1511ZM60.3088 13.0438L60.2784 12.9453C59.2591 13.2636 58.2323 13.5744 57.213 13.8928C57.2206 13.9231 57.2358 13.961 57.2434 13.9914C58.0801 14.0368 59.7536 13.5214 60.3088 13.0438ZM68.6455 22.2313C69.7332 22.0343 70.7296 21.6097 71.65 21.0109C70.5547 21.1928 69.5734 21.6401 68.6455 22.2313ZM52.1167 17.8043C52.1167 17.5315 51.8581 17.2434 51.5995 17.2358C51.3256 17.2358 51.1279 17.4102 51.1203 17.6831C51.1051 17.9939 51.3561 18.2668 51.6451 18.2743C51.8961 18.2743 52.1167 18.0545 52.1167 17.8043ZM66.0745 33.8295C66.0745 33.8295 66.1353 33.8143 66.1658 33.7992C65.9452 32.8516 65.1465 30.8807 64.5912 30.532C65.1085 31.6842 65.5953 32.7531 66.0745 33.8219V33.8295ZM69.0106 32.8743C68.6379 31.9571 68.0826 31.1687 67.3067 30.5547C67.7175 31.4416 68.2727 32.2224 69.0106 32.8743ZM70.5851 29.1372L70.6916 28.9856C70.1972 28.6141 69.7028 28.2351 69.2007 27.8712C69.1399 27.8257 69.0182 27.8485 68.9269 27.8485C68.9497 27.9698 68.9269 28.1669 69.003 28.2123C69.5202 28.5383 70.0602 28.834 70.5851 29.1447V29.1372ZM71.5967 23.5049C70.7676 23.5655 69.9385 23.6262 69.041 23.6944C69.3072 24.0355 70.8817 23.9142 71.5967 23.5049ZM60.286 14.2946C60.286 14.2946 60.2708 14.2188 60.2556 14.1809C59.358 14.3931 58.4529 14.6054 57.5553 14.8176C57.5629 14.848 57.5705 14.8859 57.5781 14.9162C58.5213 14.8707 59.4341 14.7267 60.286 14.2946ZM47.8267 14.9541C47.8571 15.3407 47.994 15.5378 48.2603 15.5378C48.5341 15.5378 48.633 15.3179 48.6178 15.0754C48.6025 14.7949 48.4124 14.6281 48.1614 14.666C48.0169 14.6888 47.9028 14.8783 47.8267 14.9465V14.9541ZM55.3114 31.0399C55.3114 31.0399 55.2734 31.0929 55.2582 31.1233C56.0036 31.9268 57.0305 32.6697 57.5249 32.6848C56.7871 32.139 56.0492 31.5857 55.3114 31.0399ZM71.2545 26.2945C71.2697 26.2338 71.2773 26.1808 71.2925 26.1201C70.7372 25.9534 70.1896 25.779 69.6343 25.6198C69.5658 25.5971 69.4746 25.6501 69.3985 25.6729C69.4441 25.7563 69.4746 25.8927 69.5354 25.9079C70.1059 26.0519 70.684 26.1732 71.2545 26.2945ZM71.2773 25.0361C71.2773 24.9831 71.2849 24.9224 71.2925 24.8694C70.7448 24.7936 70.1972 24.7177 69.6419 24.6495C69.5354 24.6419 69.4289 24.7026 69.3224 24.7329C69.4289 24.8011 69.5278 24.9224 69.6343 24.93C70.182 24.9831 70.7296 24.9982 71.2773 25.0285V25.0361ZM60.712 15.2421C60.712 15.2421 60.6968 15.1739 60.6968 15.1436C59.8524 15.3028 59.0081 15.462 58.1714 15.6136C58.1714 15.6439 58.1866 15.6742 58.1866 15.7121C59.0614 15.7273 59.9057 15.5984 60.712 15.2421ZM48.2527 16.7507C48.2603 16.3868 48.1157 16.2276 47.8723 16.22C47.6746 16.2124 47.5224 16.2655 47.5148 16.5005C47.5072 16.7658 47.6974 17.0008 47.9332 16.9553C48.0701 16.9326 48.1842 16.7961 48.2527 16.7507ZM68.1663 29.9483C68.5162 30.532 68.8889 31.0929 69.4517 31.4871C69.1627 30.8579 68.7748 30.3121 68.1663 29.9483ZM60.9782 16.1821V16.0912C60.2328 16.1821 59.4873 16.2731 58.7419 16.3641C59.5102 16.4929 60.2632 16.4929 60.9782 16.1897V16.1821ZM68.5618 28.9249C68.5618 28.9249 68.5085 29.0007 68.4781 29.0386C68.9649 29.448 69.4593 29.8649 69.9462 30.2742L70.0374 30.1681C69.6267 29.6526 69.1855 29.1827 68.5618 28.9249ZM55.4635 20.1391C55.6841 20.2907 55.8134 20.4424 55.958 20.4651C56.1785 20.503 56.3459 20.3135 56.285 20.124C56.2394 19.9648 56.034 19.8435 55.9047 19.707C55.783 19.8208 55.6689 19.942 55.4635 20.1391ZM66.1201 23.285C66.1201 23.3381 66.1201 23.3987 66.1201 23.4518C66.2646 23.5504 66.4016 23.7171 66.5461 23.7247C66.6374 23.7323 66.8123 23.52 66.8351 23.3912C66.8656 23.1941 66.7362 23.0121 66.5004 23.05C66.3635 23.0728 66.2494 23.2017 66.1201 23.285ZM64.6673 23.467V23.3002C64.538 23.2017 64.4163 23.0576 64.2718 23.0197C64.036 22.9667 63.9371 23.1334 63.9447 23.3608C63.9447 23.5655 64.0208 23.7702 64.2642 23.7247C64.4087 23.702 64.538 23.5579 64.6749 23.467H64.6673ZM47.1878 16.1745C46.9672 16.0078 46.8531 15.8713 46.7085 15.8258C46.5336 15.7728 46.3891 15.9016 46.4575 16.0836C46.5108 16.2276 46.6477 16.3641 46.7846 16.455C46.8226 16.4778 46.9824 16.3262 47.1954 16.1821L47.1878 16.1745ZM54.7105 19.3962C54.9235 19.5554 55.0452 19.6767 55.1897 19.7298C55.2277 19.745 55.4027 19.5479 55.4179 19.4342C55.4407 19.2219 55.2962 19.0703 55.0756 19.1006C54.9767 19.1158 54.8931 19.2446 54.7105 19.3962ZM59.1983 17.1903V17.2965C59.7992 17.3344 60.3925 17.395 60.963 17.1827C60.963 17.1524 60.963 17.1221 60.963 17.0918C60.3773 17.1221 59.784 17.16 59.1983 17.1903ZM52.3449 18.6155C52.5199 18.7595 52.6263 18.9111 52.7404 18.9187C52.8241 18.9187 53.0143 18.7064 52.9915 18.6534C52.9382 18.5169 52.8013 18.4032 52.672 18.3274C52.6416 18.3047 52.497 18.4714 52.3373 18.6155H52.3449ZM22.7331 11.9598C22.7331 11.9598 22.7179 11.884 22.7027 11.8461C22.0257 11.9901 21.3412 12.1266 20.6642 12.2706C20.6718 12.3085 20.6794 12.354 20.687 12.3919C21.364 12.2479 22.0485 12.1038 22.7331 11.9598ZM28.1489 30.8352C28.727 30.7746 29.0617 30.4941 29.1073 30.0165C28.7422 30.3273 28.4455 30.5775 28.1489 30.8352ZM59.9513 21.9433C59.8068 22.148 59.6623 22.2617 59.6775 22.3451C59.7003 22.4512 59.8372 22.5573 59.9513 22.618C59.9894 22.6407 60.1795 22.4967 60.1719 22.4588C60.1415 22.3147 60.0578 22.1859 59.9513 21.9433ZM46.3739 17.7968C46.488 17.395 46.3967 17.1676 46.0848 17.016C45.9783 17.4177 46.0544 17.63 46.3739 17.7968ZM51.2876 19.0854C51.242 19.1006 51.1963 19.1158 51.1507 19.1309C51.2115 19.419 51.2648 19.7146 51.3409 20.0027C51.3561 20.0558 51.4321 20.0861 51.4778 20.1316C51.5234 20.0709 51.6147 19.9951 51.5995 19.9572C51.5082 19.6616 51.3941 19.3735 51.2876 19.0854ZM50.3064 18.6382C50.2607 18.6534 50.2075 18.6761 50.1619 18.6913C50.2151 18.9414 50.2607 19.1916 50.3292 19.4417C50.3444 19.5024 50.4357 19.5327 50.4965 19.5782C50.5346 19.51 50.6182 19.4342 50.603 19.3887C50.5194 19.1309 50.4129 18.8884 50.314 18.6382H50.3064ZM46.9748 17.3344C47.066 17.6073 47.1649 17.8877 47.2866 18.244C47.4996 17.8119 47.4007 17.5163 46.9748 17.3344ZM49.3328 19.0172C49.5686 18.6609 49.4088 18.2289 49.0285 18.0545C49.135 18.4032 49.2339 18.714 49.3328 19.0172ZM27.9663 30.1757C27.9283 30.1226 27.8827 30.0696 27.8446 30.0165C27.5784 30.2363 27.3046 30.4638 27.0384 30.6836C27.0764 30.7291 27.1144 30.7746 27.1525 30.82C27.4263 30.6078 27.7001 30.3879 27.9739 30.1757H27.9663ZM53.9194 20.3211C53.9423 20.6546 53.8966 21.0109 54.14 21.3369C54.3074 21.0109 54.2389 20.6925 53.9194 20.3211ZM60.7348 22.9212C60.6968 22.9212 60.6511 22.9288 60.6131 22.9363C60.5751 23.0273 60.4914 23.1334 60.5142 23.2092C60.5446 23.3229 60.6435 23.4139 60.712 23.52C60.7804 23.4442 60.9097 23.3608 60.9021 23.2926C60.8945 23.1713 60.7956 23.05 60.7424 22.9288L60.7348 22.9212ZM42.0534 16.6445C42.2816 16.2807 42.1447 15.9244 41.7035 15.6667C41.8328 16.0154 41.9241 16.2807 42.0534 16.6445ZM36.3106 15.3862C36.2954 15.8334 36.4019 15.9926 36.7137 16.0229C36.7365 15.7273 36.6453 15.5075 36.3106 15.3862ZM44.2289 17.0918C44.2289 17.0918 44.2973 17.0615 44.3277 17.0463C44.2212 16.781 44.1072 16.5081 44.0007 16.2428C43.8561 16.6976 43.9246 16.8871 44.2289 17.0918ZM47.1345 14.9162C47.1345 14.9162 47.2106 14.9086 47.2486 14.901C47.279 14.8176 47.3627 14.7115 47.3323 14.6433C47.2866 14.5296 47.1801 14.4462 47.0965 14.3476C47.0432 14.431 46.9367 14.522 46.9443 14.5978C46.9672 14.7115 47.0661 14.8101 47.1269 14.9162H47.1345ZM39.1554 16.1366C39.2238 16.1063 39.2923 16.076 39.3531 16.0381C39.2314 15.8031 39.1097 15.5605 38.988 15.3179L38.8435 15.3862C38.95 15.6363 39.0489 15.8789 39.1554 16.1291V16.1366ZM56.9848 20.4878C56.8935 20.6622 56.8099 20.7456 56.8175 20.8138C56.8403 20.9199 56.924 21.0109 56.9848 21.1094C57.0533 21.0336 57.175 20.9654 57.1826 20.8896C57.1826 20.7911 57.0913 20.6925 56.9848 20.4878ZM46.3739 14.1581C46.2217 14.052 46.1381 13.9686 46.0392 13.9383C46.0088 13.9307 45.8795 14.0823 45.8947 14.1278C45.9251 14.2339 46.0164 14.3173 46.0848 14.4083C46.1609 14.3401 46.237 14.2794 46.3739 14.1581ZM43.0347 16.6218L43.1335 16.5839C43.1716 16.2883 43.1411 16.0229 42.738 15.8258C42.8597 16.1442 42.9434 16.3792 43.0347 16.6218ZM59.0462 21.1246C58.9397 21.2762 58.8408 21.3672 58.856 21.4354C58.8712 21.5264 58.9625 21.6097 59.0309 21.6931C59.0918 21.6249 59.2059 21.5643 59.2059 21.496C59.2059 21.4051 59.1298 21.3065 59.0462 21.1322V21.1246ZM25.9582 30.4183C26.4603 30.3728 26.6428 30.2363 26.7037 29.8497C26.4527 30.0392 26.2245 30.2136 25.9582 30.4183ZM52.3601 20.7532C52.4134 20.7456 52.4666 20.738 52.5199 20.7304C52.4818 20.503 52.4438 20.2832 52.4058 20.0557C52.3601 20.0633 52.3145 20.0709 52.2612 20.0785C52.2917 20.3059 52.3297 20.5257 52.3601 20.7532ZM53.0979 19.8132C53.0371 19.8283 52.9762 19.8359 52.9078 19.8511C52.961 20.0633 53.0143 20.2832 53.0599 20.4954C53.1055 20.4878 53.1512 20.4727 53.2044 20.4651L53.0979 19.8132ZM37.6721 16.3262C37.5504 16.0987 37.4591 15.9168 37.3679 15.7425C37.307 16.1897 37.3374 16.2579 37.6721 16.3262ZM61.6704 24.1189C61.7236 24.1037 61.7845 24.0961 61.8377 24.081C61.7997 23.9142 61.7617 23.7399 61.7236 23.5731C61.6628 23.5883 61.6019 23.6034 61.5411 23.611C61.5791 23.7778 61.6247 23.9445 61.6628 24.1189H61.6704Z" fill="#514432"/>
</g>
<defs>
<filter id="filter0_d_6001_22" x="0" y="0" width="79.6279" height="48" filterUnits="userSpaceOnUse" color-interpolation-filters="sRGB">
<feFlood flood-opacity="0" result="BackgroundImageFix"/>
<feColorMatrix in="SourceAlpha" type="matrix" values="0 0 0 0 0 0 0 0 0 0 0 0 0 0 0 0 0 0 127 0" result="hardAlpha"/>
<feOffset dy="4"/>
<feGaussianBlur stdDeviation="2"/>
<feComposite in2="hardAlpha" operator="out"/>
<feColorMatrix type="matrix" values="0 0 0 0 0 0 0 0 0 0 0 0 0 0 0 0 0 0 0.25 0"/>
<feBlend mode="normal" in2="BackgroundImageFix" result="effect1_dropShadow_6001_22"/>
<feBlend mode="normal" in="SourceGraphic" in2="effect1_dropShadow_6001_22" result="shape"/>
</filter>
</defs>
</svg>
